<svg width="16" height="43" viewBox="0 0 16 43" fill="none" xmlns="http://www.w3.org/2000/svg">
<mask id="path-1-outside-1_0_1" maskUnits="userSpaceOnUse" x="0" y="17" width="16" height="26" fill="black">
<rect fill="white" y="17" width="16" height="26"/>
<path d="M8.73438 38.9932C8.65625 34.9111 8.61719 31.8301 8.61719 29.75C8.61719 27.3477 8.66602 24.6182 8.76367 21.5615C8.7832 20.8193 10.4141 20.3506 13.6562 20.1553C13.7148 19.9697 13.7148 19.7402 13.6562 19.4668C11.0977 19.5449 9.10059 19.584 7.66504 19.584C6.46387 19.584 4.75977 19.5449 2.55273 19.4668C2.47461 19.6426 2.47461 19.8721 2.55273 20.1553C4.79883 20.3701 5.93164 20.8389 5.95117 21.5615C6.04883 23.8564 6.09766 26.5859 6.09766 29.75C6.09766 32.8457 6.03906 35.9268 5.92188 38.9932C5.90234 39.7158 4.76953 40.1846 2.52344 40.3994C2.44531 40.5557 2.44531 40.7852 2.52344 41.0879C4.18359 41.0293 5.8877 41 7.63574 41C9.71582 41 11.7129 41.0293 13.627 41.0879C13.7051 40.9316 13.7051 40.7021 13.627 40.3994C10.3848 40.2041 8.75391 39.7354 8.73438 38.9932ZM2.08398 20.7266C1.91797 20.082 1.9375 19.4521 2.14258 18.8369C3.00195 18.8369 4.16406 18.8613 5.62891 18.9102C7.10352 18.959 8.12891 18.9834 8.70508 18.9834C9.125 18.9834 9.93555 18.9736 11.1367 18.9541C12.3379 18.9346 13.3779 18.9248 14.2568 18.9248C14.4424 19.4814 14.4521 20.082 14.2861 20.7266C12.1279 20.9414 11.0391 21.2295 11.0195 21.5908C10.9023 24.0322 10.8438 27.1133 10.8438 30.834C10.8438 34.4277 10.8926 37.1377 10.9902 38.9639C10.9902 39.0225 11.0146 39.0811 11.0635 39.1396C11.1123 39.1982 11.1807 39.2471 11.2686 39.2861C11.3662 39.3252 11.4639 39.3691 11.5615 39.418C11.6592 39.457 11.791 39.4961 11.957 39.5352C12.1328 39.5742 12.2793 39.6084 12.3965 39.6377C12.5137 39.667 12.6699 39.6963 12.8652 39.7256C13.0703 39.7549 13.2314 39.7793 13.3486 39.7988C13.4756 39.8184 13.6416 39.8379 13.8467 39.8574C14.0615 39.877 14.208 39.8965 14.2861 39.916C14.4521 40.4629 14.4229 41.0635 14.1982 41.7178C10.5947 41.6396 8.40723 41.6006 7.63574 41.6006C7.1084 41.6006 5.26758 41.6396 2.11328 41.7178C1.86914 41.0439 1.86914 40.4141 2.11328 39.8281C4.23242 39.6133 5.30176 39.3252 5.32129 38.9639C5.43848 36.5225 5.49707 33.4512 5.49707 29.75C5.49707 26.6055 5.44824 23.8857 5.35059 21.5908C5.33105 21.2295 4.24219 20.9414 2.08398 20.7266Z"/>
</mask>
<path d="M8.73438 38.9932C8.65625 34.9111 8.61719 31.8301 8.61719 29.75C8.61719 27.3477 8.66602 24.6182 8.76367 21.5615C8.7832 20.8193 10.4141 20.3506 13.6562 20.1553C13.7148 19.9697 13.7148 19.7402 13.6562 19.4668C11.0977 19.5449 9.10059 19.584 7.66504 19.584C6.46387 19.584 4.75977 19.5449 2.55273 19.4668C2.47461 19.6426 2.47461 19.8721 2.55273 20.1553C4.79883 20.3701 5.93164 20.8389 5.95117 21.5615C6.04883 23.8564 6.09766 26.5859 6.09766 29.75C6.09766 32.8457 6.03906 35.9268 5.92188 38.9932C5.90234 39.7158 4.76953 40.1846 2.52344 40.3994C2.44531 40.5557 2.44531 40.7852 2.52344 41.0879C4.18359 41.0293 5.8877 41 7.63574 41C9.71582 41 11.7129 41.0293 13.627 41.0879C13.7051 40.9316 13.7051 40.7021 13.627 40.3994C10.3848 40.2041 8.75391 39.7354 8.73438 38.9932ZM2.08398 20.7266C1.91797 20.082 1.9375 19.4521 2.14258 18.8369C3.00195 18.8369 4.16406 18.8613 5.62891 18.9102C7.10352 18.959 8.12891 18.9834 8.70508 18.9834C9.125 18.9834 9.93555 18.9736 11.1367 18.9541C12.3379 18.9346 13.3779 18.9248 14.2568 18.9248C14.4424 19.4814 14.4521 20.082 14.2861 20.7266C12.1279 20.9414 11.0391 21.2295 11.0195 21.5908C10.9023 24.0322 10.8438 27.1133 10.8438 30.834C10.8438 34.4277 10.8926 37.1377 10.9902 38.9639C10.9902 39.0225 11.0146 39.0811 11.0635 39.1396C11.1123 39.1982 11.1807 39.2471 11.2686 39.2861C11.3662 39.3252 11.4639 39.3691 11.5615 39.418C11.6592 39.457 11.791 39.4961 11.957 39.5352C12.1328 39.5742 12.2793 39.6084 12.3965 39.6377C12.5137 39.667 12.6699 39.6963 12.8652 39.7256C13.0703 39.7549 13.2314 39.7793 13.3486 39.7988C13.4756 39.8184 13.6416 39.8379 13.8467 39.8574C14.0615 39.877 14.208 39.8965 14.2861 39.916C14.4521 40.4629 14.4229 41.0635 14.1982 41.7178C10.5947 41.6396 8.40723 41.6006 7.63574 41.6006C7.1084 41.6006 5.26758 41.6396 2.11328 41.7178C1.86914 41.0439 1.86914 40.4141 2.11328 39.8281C4.23242 39.6133 5.30176 39.3252 5.32129 38.9639C5.43848 36.5225 5.49707 33.4512 5.49707 29.75C5.49707 26.6055 5.44824 23.8857 5.35059 21.5908C5.33105 21.2295 4.24219 20.9414 2.08398 20.7266Z" fill="#EFEF17"/>
<path d="M8.73438 38.9932L7.73453 39.0123L7.73472 39.0195L8.73438 38.9932ZM8.76367 21.5615L9.76318 21.5935L9.76333 21.5878L8.76367 21.5615ZM13.6562 20.1553L13.7164 21.1535L14.4028 21.1121L14.6098 20.4564L13.6562 20.1553ZM13.6562 19.4668L14.6341 19.2573L14.4593 18.4418L13.6257 18.4673L13.6562 19.4668ZM2.55273 19.4668L2.58811 18.4674L1.9132 18.4435L1.63892 19.0607L2.55273 19.4668ZM2.55273 20.1553L1.58874 20.4212L1.7719 21.0851L2.45752 21.1507L2.55273 20.1553ZM5.95117 21.5615L4.95154 21.5885L4.95175 21.5963L4.95208 21.604L5.95117 21.5615ZM5.92188 38.9932L4.92254 38.955L4.92224 38.9661L5.92188 38.9932ZM2.52344 40.3994L2.42822 39.404L1.87676 39.4567L1.62901 39.9522L2.52344 40.3994ZM2.52344 41.0879L1.55516 41.3378L1.75589 42.1156L2.55871 42.0873L2.52344 41.0879ZM13.627 41.0879L13.5964 42.0874L14.2354 42.107L14.5214 41.5351L13.627 41.0879ZM13.627 40.3994L14.5952 40.1495L14.4134 39.445L13.6871 39.4012L13.627 40.3994ZM2.08398 20.7266L1.11559 20.976L1.28983 21.6524L1.98493 21.7216L2.08398 20.7266ZM2.14258 18.8369V17.8369H1.42182L1.19389 18.5207L2.14258 18.8369ZM5.62891 18.9102L5.59559 19.9096L5.59581 19.9096L5.62891 18.9102ZM14.2568 18.9248L15.2055 18.6086L14.9776 17.9248H14.2568V18.9248ZM14.2861 20.7266L14.3852 21.7216L15.0803 21.6524L15.2545 20.976L14.2861 20.7266ZM11.0195 21.5908L10.021 21.5368L10.0207 21.5429L11.0195 21.5908ZM10.9902 38.9639H11.9902V38.9371L11.9888 38.9105L10.9902 38.9639ZM11.2686 39.2861L10.8624 40.1999L10.8797 40.2076L10.8972 40.2146L11.2686 39.2861ZM11.5615 39.418L11.1143 40.3124L11.1515 40.331L11.1901 40.3464L11.5615 39.418ZM11.957 39.5352L11.728 40.5086L11.7401 40.5113L11.957 39.5352ZM12.8652 39.7256L12.7169 40.7145L12.7238 40.7155L12.8652 39.7256ZM13.3486 39.7988L13.1842 40.7853L13.1966 40.7872L13.3486 39.7988ZM13.8467 39.8574L13.7519 40.8529L13.7561 40.8533L13.8467 39.8574ZM14.2861 39.916L15.243 39.6255L15.0784 39.0833L14.5287 38.9459L14.2861 39.916ZM14.1982 41.7178L14.1766 42.7175L14.9069 42.7334L15.1441 42.0425L14.1982 41.7178ZM2.11328 41.7178L1.17309 42.0584L1.41833 42.7353L2.13804 42.7175L2.11328 41.7178ZM2.11328 39.8281L2.01242 38.8332L1.41944 38.8933L1.1902 39.4435L2.11328 39.8281ZM5.32129 38.9639L6.31985 39.0178L6.32014 39.0118L5.32129 38.9639ZM5.35059 21.5908L6.34975 21.5483L6.34913 21.5368L5.35059 21.5908ZM8.73438 38.9932L9.73419 38.974C9.6561 34.8936 9.61719 31.8202 9.61719 29.75H8.61719H7.61719C7.61719 31.8399 7.6564 34.9287 7.73456 39.0123L8.73438 38.9932ZM8.61719 29.75H9.61719C9.61719 27.3607 9.66576 24.6422 9.76316 21.5935L8.76367 21.5615L7.76418 21.5296C7.66627 24.5942 7.61719 27.3346 7.61719 29.75H8.61719ZM8.76367 21.5615L9.76333 21.5878C9.75728 21.8176 9.6145 21.9046 9.67202 21.8624C9.74094 21.8118 9.91887 21.7175 10.2777 21.6144C10.9851 21.4111 12.1149 21.2499 13.7164 21.1535L13.6562 20.1553L13.5961 19.1571C11.9554 19.2559 10.6487 19.4268 9.72522 19.6922C9.26863 19.8235 8.83254 19.9977 8.48887 20.2499C8.13379 20.5104 7.77983 20.9343 7.76402 21.5352L8.76367 21.5615ZM13.6562 20.1553L14.6098 20.4564C14.7385 20.0489 14.714 19.6305 14.6341 19.2573L13.6562 19.4668L12.6784 19.6763C12.6961 19.7585 12.7002 19.813 12.7002 19.844C12.7002 19.8744 12.6963 19.8744 12.7027 19.8541L13.6562 20.1553ZM13.6562 19.4668L13.6257 18.4673C11.0708 18.5453 9.08549 18.584 7.66504 18.584V19.584V20.584C9.11568 20.584 11.1245 20.5446 13.6868 20.4663L13.6562 19.4668ZM7.66504 19.584V18.584C6.4816 18.584 4.79135 18.5454 2.58811 18.4674L2.55273 19.4668L2.51736 20.4662C4.72818 20.5444 6.44613 20.584 7.66504 20.584V19.584ZM2.55273 19.4668L1.63892 19.0607C1.42845 19.5342 1.48004 20.0272 1.58874 20.4212L2.55273 20.1553L3.51673 19.8893C3.50631 19.8516 3.5005 19.8228 3.49738 19.8023C3.49425 19.7818 3.49414 19.7717 3.49414 19.7708C3.49414 19.7693 3.49419 19.8107 3.46655 19.8729L2.55273 19.4668ZM2.55273 20.1553L2.45752 21.1507C3.54996 21.2552 4.27673 21.415 4.70456 21.592C5.17999 21.7887 4.95862 21.8507 4.95154 21.5885L5.95117 21.5615L6.95081 21.5345C6.92419 20.5496 6.12665 20.016 5.46927 19.744C4.76428 19.4522 3.8016 19.2702 2.64795 19.1598L2.55273 20.1553ZM5.95117 21.5615L4.95208 21.604C5.04895 23.8807 5.09766 26.5953 5.09766 29.75H6.09766H7.09766C7.09766 26.5766 7.0487 23.8322 6.95027 21.519L5.95117 21.5615ZM6.09766 29.75H5.09766C5.09766 32.8331 5.0393 35.9014 4.9226 38.955L5.92188 38.9932L6.92115 39.0314C7.03882 35.9521 7.09766 32.8583 7.09766 29.75H6.09766ZM5.92188 38.9932L4.92224 38.9661C4.92933 38.7039 5.15069 38.766 4.67527 38.9627C4.24744 39.1397 3.52066 39.2995 2.42822 39.404L2.52344 40.3994L2.61866 41.3949C3.77231 41.2845 4.73498 41.1025 5.43997 40.8107C6.09736 40.5387 6.89489 40.005 6.92151 39.0202L5.92188 38.9932ZM2.52344 40.3994L1.62901 39.9522C1.38536 40.4395 1.4595 40.9671 1.55516 41.3378L2.52344 41.0879L3.49171 40.838C3.47969 40.7914 3.47273 40.7555 3.46889 40.7293C3.46502 40.703 3.46484 40.6901 3.46484 40.6887C3.46484 40.6873 3.46503 40.702 3.45959 40.7288C3.45405 40.7562 3.44232 40.7977 3.41786 40.8466L2.52344 40.3994ZM2.52344 41.0879L2.55871 42.0873C4.20652 42.0291 5.89885 42 7.63574 42V41V40C5.87654 40 4.16067 40.0295 2.48817 40.0885L2.52344 41.0879ZM7.63574 41V42C9.70648 42 11.6933 42.0292 13.5964 42.0874L13.627 41.0879L13.6576 40.0884C11.7325 40.0294 9.72516 40 7.63574 40V41ZM13.627 41.0879L14.5214 41.5351C14.765 41.0478 14.6909 40.5202 14.5952 40.1495L13.627 40.3994L12.6587 40.6493C12.6707 40.6959 12.6777 40.7318 12.6815 40.758C12.6854 40.7844 12.6855 40.7972 12.6855 40.7986C12.6855 40.8 12.6854 40.7853 12.6908 40.7585C12.6963 40.7311 12.7081 40.6896 12.7325 40.6407L13.627 41.0879ZM13.627 40.3994L13.6871 39.4012C12.0856 39.3047 10.9558 39.1436 10.2484 38.9403C9.88958 38.8371 9.71165 38.7429 9.64272 38.6923C9.5852 38.6501 9.72798 38.737 9.73403 38.9669L8.73438 38.9932L7.73472 39.0195C7.75053 39.6204 8.10449 40.0443 8.45958 40.3048C8.80325 40.5569 9.23933 40.7312 9.69593 40.8625C10.6194 41.1279 11.9261 41.2988 13.5668 41.3976L13.627 40.3994ZM2.08398 20.7266L3.05238 20.4771C2.93307 20.0139 2.94876 19.5806 3.09126 19.1531L2.14258 18.8369L1.19389 18.5207C0.926237 19.3237 0.902871 20.1501 1.11559 20.976L2.08398 20.7266ZM2.14258 18.8369V19.8369C2.98581 19.8369 4.1353 19.8609 5.59559 19.9096L5.62891 18.9102L5.66222 17.9107C4.19282 17.8617 3.0181 17.8369 2.14258 17.8369V18.8369ZM5.62891 18.9102L5.59581 19.9096C7.06966 19.9584 8.11032 19.9834 8.70508 19.9834V18.9834V17.9834C8.14749 17.9834 7.13737 17.9596 5.662 17.9107L5.62891 18.9102ZM8.70508 18.9834V19.9834C9.13439 19.9834 9.95287 19.9735 11.153 19.954L11.1367 18.9541L11.1205 17.9542C9.91823 17.9738 9.11561 17.9834 8.70508 17.9834V18.9834ZM11.1367 18.9541L11.153 19.954C12.3505 19.9345 13.3849 19.9248 14.2568 19.9248V18.9248V17.9248C13.371 17.9248 12.3252 17.9346 11.1205 17.9542L11.1367 18.9541ZM14.2568 18.9248L13.3082 19.241C13.4249 19.5912 13.4424 19.9933 13.3177 20.4771L14.2861 20.7266L15.2545 20.976C15.4619 20.1707 15.4599 19.3717 15.2055 18.6086L14.2568 18.9248ZM14.2861 20.7266L14.1871 19.7315C13.094 19.8403 12.2184 19.9721 11.5951 20.137C11.2905 20.2176 10.9833 20.3219 10.7292 20.4707C10.5218 20.5922 10.0544 20.9179 10.021 21.5368L11.0195 21.5908L12.0181 21.6448C11.9944 22.0831 11.6704 22.2373 11.7402 22.1964C11.7632 22.1829 11.8668 22.134 12.1066 22.0705C12.5721 21.9473 13.3201 21.8277 14.3852 21.7216L14.2861 20.7266ZM11.0195 21.5908L10.0207 21.5429C9.90244 24.0062 9.84375 27.1046 9.84375 30.834H10.8438H11.8438C11.8438 27.122 11.9022 24.0583 12.0184 21.6388L11.0195 21.5908ZM10.8438 30.834H9.84375C9.84375 34.4321 9.89254 37.1636 9.99166 39.0173L10.9902 38.9639L11.9888 38.9105C11.8926 37.1118 11.8438 34.4234 11.8438 30.834H10.8438ZM10.9902 38.9639H9.99023C9.99023 39.3192 10.1425 39.5965 10.2953 39.7798L11.0635 39.1396L11.8317 38.4995C11.8868 38.5656 11.9902 38.7257 11.9902 38.9639H10.9902ZM11.0635 39.1396L10.2953 39.7798C10.4644 39.9828 10.67 40.1144 10.8624 40.1999L11.2686 39.2861L11.6747 38.3723C11.6913 38.3797 11.7602 38.4137 11.8317 38.4995L11.0635 39.1396ZM11.2686 39.2861L10.8972 40.2146C10.9681 40.243 11.0405 40.2755 11.1143 40.3124L11.5615 39.418L12.0087 38.5235C11.8872 38.4628 11.7643 38.4074 11.6399 38.3577L11.2686 39.2861ZM11.5615 39.418L11.1901 40.3464C11.3535 40.4118 11.5393 40.4642 11.728 40.5086L11.957 39.5352L12.1861 38.5617C12.0427 38.528 11.9649 38.5023 11.9329 38.4895L11.5615 39.418ZM11.957 39.5352L11.7401 40.5113C11.911 40.5493 12.0483 40.5814 12.1539 40.6078L12.3965 39.6377L12.639 38.6676C12.5103 38.6354 12.3546 38.5991 12.174 38.559L11.957 39.5352ZM12.3965 39.6377L12.1539 40.6078C12.3154 40.6482 12.507 40.683 12.7169 40.7145L12.8652 39.7256L13.0136 38.7366C12.8328 38.7095 12.7119 38.6858 12.639 38.6676L12.3965 39.6377ZM12.8652 39.7256L12.7238 40.7155C12.9259 40.7444 13.0783 40.7676 13.1842 40.7852L13.3486 39.7988L13.513 38.8124C13.3846 38.791 13.2147 38.7654 13.0067 38.7356L12.8652 39.7256ZM13.3486 39.7988L13.1966 40.7872C13.3503 40.8109 13.5376 40.8325 13.7519 40.8529L13.8467 39.8574L13.9415 38.8619C13.7456 38.8433 13.6008 38.8259 13.5007 38.8105L13.3486 39.7988ZM13.8467 39.8574L13.7561 40.8533C13.8553 40.8623 13.9308 40.8707 13.9855 40.8779C14.0468 40.8861 14.0592 40.8901 14.0436 40.8862L14.2861 39.916L14.5287 38.9459C14.3653 38.905 14.1456 38.8805 13.9372 38.8615L13.8467 39.8574ZM14.2861 39.916L13.3293 40.2065C13.4223 40.513 13.4234 40.8949 13.2524 41.3931L14.1982 41.7178L15.1441 42.0425C15.4223 41.2321 15.482 40.4128 15.243 39.6255L14.2861 39.916ZM14.1982 41.7178L14.2199 40.718C10.6216 40.64 8.42078 40.6006 7.63574 40.6006V41.6006V42.6006C8.39367 42.6006 10.5679 42.6393 14.1766 42.7175L14.1982 41.7178ZM7.63574 41.6006V40.6006C7.09257 40.6006 5.23509 40.6401 2.08852 40.7181L2.11328 41.7178L2.13804 42.7175C5.30007 42.6391 7.12423 42.6006 7.63574 42.6006V41.6006ZM2.11328 41.7178L3.05347 41.3771C2.88277 40.906 2.90109 40.5374 3.03636 40.2127L2.11328 39.8281L1.1902 39.4435C0.837188 40.2907 0.855516 41.1819 1.17309 42.0584L2.11328 41.7178ZM2.11328 39.8281L2.21415 40.823C3.28798 40.7142 4.14999 40.5821 4.76477 40.4165C5.0652 40.3356 5.36967 40.2305 5.62203 40.08C5.83186 39.9548 6.28682 39.6285 6.31983 39.0178L5.32129 38.9639L4.32275 38.9099C4.34599 38.4799 4.65996 38.3251 4.59757 38.3623C4.57772 38.3741 4.47875 38.4222 4.24451 38.4854C3.78995 38.6078 3.05772 38.7272 2.01242 38.8332L2.11328 39.8281ZM5.32129 38.9639L6.32014 39.0118C6.43837 36.5486 6.49707 33.4599 6.49707 29.75H5.49707H4.49707C4.49707 33.4424 4.43858 36.4964 4.32244 38.9159L5.32129 38.9639ZM5.49707 29.75H6.49707C6.49707 26.5961 6.44811 23.8615 6.34968 21.5483L5.35059 21.5908L4.35149 21.6333C4.44837 23.91 4.49707 26.6149 4.49707 29.75H5.49707ZM5.35059 21.5908L6.34913 21.5368C6.31567 20.9179 5.84827 20.5922 5.64096 20.4707C5.38684 20.3219 5.07964 20.2176 4.77506 20.137C4.15172 19.9721 3.27611 19.8403 2.18304 19.7315L2.08398 20.7266L1.98493 21.7216C3.05007 21.8277 3.79798 21.9473 4.26351 22.0705C4.50337 22.134 4.60694 22.1829 4.62991 22.1964C4.69971 22.2373 4.37574 22.0831 4.35204 21.6448L5.35059 21.5908Z" fill="white" mask="url(#path-1-outside-1_0_1)"/>
<circle cx="8" cy="8" r="8" fill="#870AB4"/>
</svg>
