<svg width="48" height="48" viewBox="0 0 48 48" fill="none" xmlns="http://www.w3.org/2000/svg">
<rect width="48" height="48" rx="2" fill="#157570"/>
<mask id="path-2-outside-1_0_1" maskUnits="userSpaceOnUse" x="15" y="10" width="18" height="30" fill="black">
<rect fill="white" x="15" y="10" width="18" height="30"/>
<path d="M24.2812 35.5918C24.1875 30.6934 24.1406 26.9961 24.1406 24.5C24.1406 21.6172 24.1992 18.3418 24.3164 14.6738C24.3398 13.7832 26.2969 13.2207 30.1875 12.9863C30.2578 12.7637 30.2578 12.4883 30.1875 12.1602C27.1172 12.2539 24.7207 12.3008 22.998 12.3008C21.5566 12.3008 19.5117 12.2539 16.8633 12.1602C16.7695 12.3711 16.7695 12.6465 16.8633 12.9863C19.5586 13.2441 20.918 13.8066 20.9414 14.6738C21.0586 17.4277 21.1172 20.7031 21.1172 24.5C21.1172 28.2148 21.0469 31.9121 20.9062 35.5918C20.8828 36.459 19.5234 37.0215 16.8281 37.2793C16.7344 37.4668 16.7344 37.7422 16.8281 38.1055C18.8203 38.0352 20.8652 38 22.9629 38C25.459 38 27.8555 38.0352 30.1523 38.1055C30.2461 37.918 30.2461 37.6426 30.1523 37.2793C26.2617 37.0449 24.3047 36.4824 24.2812 35.5918ZM16.3008 13.6719C16.1016 12.8984 16.125 12.1426 16.3711 11.4043C17.4023 11.4043 18.7969 11.4336 20.5547 11.4922C22.3242 11.5508 23.5547 11.5801 24.2461 11.5801C24.75 11.5801 25.7227 11.5684 27.1641 11.5449C28.6055 11.5215 29.8535 11.5098 30.9082 11.5098C31.1309 12.1777 31.1426 12.8984 30.9434 13.6719C28.3535 13.9297 27.0469 14.2754 27.0234 14.709C26.8828 17.6387 26.8125 21.3359 26.8125 25.8008C26.8125 30.1133 26.8711 33.3652 26.9883 35.5566C26.9883 35.627 27.0176 35.6973 27.0762 35.7676C27.1348 35.8379 27.2168 35.8965 27.3223 35.9434C27.4395 35.9902 27.5566 36.043 27.6738 36.1016C27.791 36.1484 27.9492 36.1953 28.1484 36.2422C28.3594 36.2891 28.5352 36.3301 28.6758 36.3652C28.8164 36.4004 29.0039 36.4355 29.2383 36.4707C29.4844 36.5059 29.6777 36.5352 29.8184 36.5586C29.9707 36.582 30.1699 36.6055 30.416 36.6289C30.6738 36.6523 30.8496 36.6758 30.9434 36.6992C31.1426 37.3555 31.1074 38.0762 30.8379 38.8613C26.5137 38.7676 23.8887 38.7207 22.9629 38.7207C22.3301 38.7207 20.1211 38.7676 16.3359 38.8613C16.043 38.0527 16.043 37.2969 16.3359 36.5938C18.8789 36.3359 20.1621 35.9902 20.1855 35.5566C20.3262 32.627 20.3965 28.9414 20.3965 24.5C20.3965 20.7266 20.3379 17.4629 20.2207 14.709C20.1973 14.2754 18.8906 13.9297 16.3008 13.6719Z"/>
</mask>
<path d="M24.2812 35.5918C24.1875 30.6934 24.1406 26.9961 24.1406 24.5C24.1406 21.6172 24.1992 18.3418 24.3164 14.6738C24.3398 13.7832 26.2969 13.2207 30.1875 12.9863C30.2578 12.7637 30.2578 12.4883 30.1875 12.1602C27.1172 12.2539 24.7207 12.3008 22.998 12.3008C21.5566 12.3008 19.5117 12.2539 16.8633 12.1602C16.7695 12.3711 16.7695 12.6465 16.8633 12.9863C19.5586 13.2441 20.918 13.8066 20.9414 14.6738C21.0586 17.4277 21.1172 20.7031 21.1172 24.5C21.1172 28.2148 21.0469 31.9121 20.9062 35.5918C20.8828 36.459 19.5234 37.0215 16.8281 37.2793C16.7344 37.4668 16.7344 37.7422 16.8281 38.1055C18.8203 38.0352 20.8652 38 22.9629 38C25.459 38 27.8555 38.0352 30.1523 38.1055C30.2461 37.918 30.2461 37.6426 30.1523 37.2793C26.2617 37.0449 24.3047 36.4824 24.2812 35.5918ZM16.3008 13.6719C16.1016 12.8984 16.125 12.1426 16.3711 11.4043C17.4023 11.4043 18.7969 11.4336 20.5547 11.4922C22.3242 11.5508 23.5547 11.5801 24.2461 11.5801C24.75 11.5801 25.7227 11.5684 27.1641 11.5449C28.6055 11.5215 29.8535 11.5098 30.9082 11.5098C31.1309 12.1777 31.1426 12.8984 30.9434 13.6719C28.3535 13.9297 27.0469 14.2754 27.0234 14.709C26.8828 17.6387 26.8125 21.3359 26.8125 25.8008C26.8125 30.1133 26.8711 33.3652 26.9883 35.5566C26.9883 35.627 27.0176 35.6973 27.0762 35.7676C27.1348 35.8379 27.2168 35.8965 27.3223 35.9434C27.4395 35.9902 27.5566 36.043 27.6738 36.1016C27.791 36.1484 27.9492 36.1953 28.1484 36.2422C28.3594 36.2891 28.5352 36.3301 28.6758 36.3652C28.8164 36.4004 29.0039 36.4355 29.2383 36.4707C29.4844 36.5059 29.6777 36.5352 29.8184 36.5586C29.9707 36.582 30.1699 36.6055 30.416 36.6289C30.6738 36.6523 30.8496 36.6758 30.9434 36.6992C31.1426 37.3555 31.1074 38.0762 30.8379 38.8613C26.5137 38.7676 23.8887 38.7207 22.9629 38.7207C22.3301 38.7207 20.1211 38.7676 16.3359 38.8613C16.043 38.0527 16.043 37.2969 16.3359 36.5938C18.8789 36.3359 20.1621 35.9902 20.1855 35.5566C20.3262 32.627 20.3965 28.9414 20.3965 24.5C20.3965 20.7266 20.3379 17.4629 20.2207 14.709C20.1973 14.2754 18.8906 13.9297 16.3008 13.6719Z" fill="white"/>
<path d="M24.2812 35.5918L23.2814 35.6109L23.2816 35.6181L24.2812 35.5918ZM24.3164 14.6738L25.3159 14.7058L25.3161 14.7001L24.3164 14.6738ZM30.1875 12.9863L30.2476 13.9845L30.934 13.9432L31.1411 13.2875L30.1875 12.9863ZM30.1875 12.1602L31.1653 11.9506L30.9906 11.1352L30.157 11.1606L30.1875 12.1602ZM16.8633 12.1602L16.8987 11.1608L16.2237 11.1369L15.9495 11.754L16.8633 12.1602ZM16.8633 12.9863L15.8993 13.2523L16.0824 13.9162L16.7681 13.9818L16.8633 12.9863ZM20.9414 14.6738L19.9418 14.7008L19.942 14.7086L19.9423 14.7163L20.9414 14.6738ZM20.9062 35.5918L19.9069 35.5536L19.9066 35.5648L20.9062 35.5918ZM16.8281 37.2793L16.7329 36.2838L16.1814 36.3366L15.9337 36.8321L16.8281 37.2793ZM16.8281 38.1055L15.8598 38.3553L16.0606 39.1332L16.8634 39.1048L16.8281 38.1055ZM30.1523 38.1055L30.1217 39.105L30.7608 39.1246L31.0468 38.5527L30.1523 38.1055ZM30.1523 37.2793L31.1206 37.0294L30.9388 36.3249L30.2125 36.2811L30.1523 37.2793ZM16.3008 13.6719L15.3324 13.9213L15.5066 14.5978L16.2017 14.667L16.3008 13.6719ZM16.3711 11.4043V10.4043H15.6503L15.4224 11.0881L16.3711 11.4043ZM20.5547 11.4922L20.5214 12.4916L20.5216 12.4916L20.5547 11.4922ZM30.9082 11.5098L31.8569 11.1935L31.629 10.5098H30.9082V11.5098ZM30.9434 13.6719L31.0424 14.667L31.7375 14.5978L31.9118 13.9213L30.9434 13.6719ZM27.0234 14.709L26.0249 14.655L26.0246 14.661L27.0234 14.709ZM26.9883 35.5566H27.9883V35.5299L27.9869 35.5032L26.9883 35.5566ZM27.3223 35.9434L26.9161 36.8572L26.9334 36.8648L26.9509 36.8718L27.3223 35.9434ZM27.6738 36.1016L27.2266 36.996L27.2638 37.0146L27.3024 37.03L27.6738 36.1016ZM28.1484 36.2422L27.9194 37.2157L27.9315 37.2184L28.1484 36.2422ZM29.2383 36.4707L29.0899 37.4597L29.0969 37.4607L29.2383 36.4707ZM29.8184 36.5586L29.6539 37.5451L29.6663 37.547L29.8184 36.5586ZM30.416 36.6289L30.3212 37.6244L30.3255 37.6248L30.416 36.6289ZM30.9434 36.6992L31.9002 36.4087L31.7356 35.8665L31.1859 35.7291L30.9434 36.6992ZM30.8379 38.8613L30.8162 39.8611L31.5465 39.8769L31.7837 39.186L30.8379 38.8613ZM16.3359 38.8613L15.3957 39.202L15.641 39.8788L16.3607 39.861L16.3359 38.8613ZM16.3359 36.5938L16.2351 35.5989L15.6421 35.659L15.4129 36.2091L16.3359 36.5938ZM20.1855 35.5566L21.1841 35.6106L21.1844 35.6046L20.1855 35.5566ZM20.2207 14.709L21.2199 14.6665L21.2192 14.655L20.2207 14.709ZM24.2812 35.5918L25.2811 35.5727C25.1873 30.6758 25.1406 26.9862 25.1406 24.5H24.1406H23.1406C23.1406 27.0059 23.1877 30.7109 23.2814 35.6109L24.2812 35.5918ZM24.1406 24.5H25.1406C25.1406 21.6302 25.199 18.3658 25.3159 14.7058L24.3164 14.6738L23.3169 14.6419C23.1995 18.3178 23.1406 21.6041 23.1406 24.5H24.1406ZM24.3164 14.6738L25.3161 14.7001C25.311 14.8928 25.1893 14.9461 25.2881 14.8736C25.3983 14.7928 25.6376 14.6716 26.078 14.5451C26.9485 14.2949 28.3219 14.1005 30.2476 13.9845L30.1875 12.9863L30.1274 11.9881C28.1624 12.1065 26.6121 12.3106 25.5255 12.6229C24.9874 12.7776 24.4899 12.9787 24.105 13.2611C23.7086 13.5519 23.3335 14.0095 23.3168 14.6475L24.3164 14.6738ZM30.1875 12.9863L31.1411 13.2875C31.2815 12.8428 31.257 12.3786 31.1653 11.9506L30.1875 12.1602L29.2097 12.3697C29.2332 12.4792 29.2402 12.5588 29.2402 12.6128C29.2402 12.6662 29.2334 12.6869 29.2339 12.6852L30.1875 12.9863ZM30.1875 12.1602L30.157 11.1606C27.0903 11.2543 24.7056 11.3008 22.998 11.3008V12.3008V13.3008C24.7358 13.3008 27.1441 13.2536 30.218 13.1597L30.1875 12.1602ZM22.998 12.3008V11.3008C21.5744 11.3008 19.5433 11.2544 16.8987 11.1608L16.8633 12.1602L16.8279 13.1595C19.4801 13.2534 21.5389 13.3008 22.998 13.3008V12.3008ZM16.8633 12.1602L15.9495 11.754C15.7234 12.2627 15.775 12.8016 15.8993 13.2523L16.8633 12.9863L17.8273 12.7204C17.798 12.6142 17.793 12.5517 17.793 12.5249C17.793 12.5005 17.7969 12.5217 17.7771 12.5663L16.8633 12.1602ZM16.8633 12.9863L16.7681 13.9818C18.0851 14.1078 18.9808 14.3017 19.5219 14.5256C20.1107 14.7692 19.9469 14.8908 19.9418 14.7008L20.9414 14.6738L21.941 14.6468C21.9125 13.5897 21.0573 12.9964 20.2866 12.6775C19.4684 12.339 18.3368 12.1227 16.9585 11.9909L16.8633 12.9863ZM20.9414 14.6738L19.9423 14.7163C20.0587 17.4519 20.1172 20.7124 20.1172 24.5H21.1172H22.1172C22.1172 20.6938 22.0585 17.4035 21.9405 14.6313L20.9414 14.6738ZM21.1172 24.5H20.1172C20.1172 28.2022 20.0471 31.8868 19.907 35.5536L20.9062 35.5918L21.9055 35.63C22.0466 31.9375 22.1172 28.2275 22.1172 24.5H21.1172ZM20.9062 35.5918L19.9066 35.5648C19.9117 35.3748 20.0755 35.4964 19.4868 35.74C18.9457 35.964 18.05 36.1579 16.7329 36.2838L16.8281 37.2793L16.9233 38.2748C18.3016 38.1429 19.4332 37.9267 20.2515 37.5881C21.0222 37.2692 21.8773 36.6759 21.9059 35.6188L20.9062 35.5918ZM16.8281 37.2793L15.9337 36.8321C15.6744 37.3506 15.7486 37.9241 15.8598 38.3553L16.8281 38.1055L17.7964 37.8556C17.7636 37.7283 17.7578 37.6557 17.7578 37.6265C17.7578 37.5972 17.7634 37.6449 17.7226 37.7265L16.8281 37.2793ZM16.8281 38.1055L16.8634 39.1048C18.8432 39.035 20.8764 39 22.9629 39V38V37C20.8541 37 18.7974 37.0353 16.7929 37.1061L16.8281 38.1055ZM22.9629 38V39C25.4496 39 27.8359 39.035 30.1217 39.105L30.1523 38.1055L30.1829 37.1059C27.875 37.0353 25.4683 37 22.9629 37V38ZM30.1523 38.1055L31.0468 38.5527C31.306 38.0341 31.2319 37.4606 31.1206 37.0294L30.1523 37.2793L29.1841 37.5292C29.2169 37.6565 29.2227 37.7291 29.2227 37.7583C29.2227 37.7875 29.2171 37.7399 29.2579 37.6583L30.1523 38.1055ZM30.1523 37.2793L30.2125 36.2811C28.2868 36.1651 26.9133 35.9707 26.0428 35.7206C25.6025 35.594 25.3631 35.4728 25.2529 35.392C25.1542 35.3195 25.2758 35.3728 25.2809 35.5655L24.2812 35.5918L23.2816 35.6181C23.2984 36.2561 23.6735 36.7137 24.0698 37.0045C24.4547 37.2869 24.9522 37.4881 25.4904 37.6427C26.5769 37.955 28.1273 38.1591 30.0922 38.2775L30.1523 37.2793ZM16.3008 13.6719L17.2692 13.4224C17.1167 12.8303 17.1363 12.2711 17.3198 11.7205L16.3711 11.4043L15.4224 11.0881C15.1137 12.0141 15.0865 12.9665 15.3324 13.9213L16.3008 13.6719ZM16.3711 11.4043V12.4043C17.3862 12.4043 18.7681 12.4332 20.5214 12.4916L20.5547 11.4922L20.588 10.4927C18.8256 10.434 17.4185 10.4043 16.3711 10.4043V11.4043ZM20.5547 11.4922L20.5216 12.4916C22.2904 12.5502 23.5361 12.5801 24.2461 12.5801V11.5801V10.5801C23.5733 10.5801 22.3581 10.5514 20.5878 10.4927L20.5547 11.4922ZM24.2461 11.5801V12.5801C24.7594 12.5801 25.74 12.5682 27.1803 12.5448L27.1641 11.5449L27.1478 10.5451C25.7053 10.5685 24.7406 10.5801 24.2461 10.5801V11.5801ZM27.1641 11.5449L27.1803 12.5448C28.6181 12.5214 29.8605 12.5098 30.9082 12.5098V11.5098V10.5098C29.8465 10.5098 28.5928 10.5216 27.1478 10.5451L27.1641 11.5449ZM30.9082 11.5098L29.9595 11.826C30.1134 12.2875 30.1328 12.8097 29.975 13.4224L30.9434 13.6719L31.9118 13.9213C32.1524 12.9871 32.1484 12.0679 31.8569 11.1935L30.9082 11.5098ZM30.9434 13.6719L30.8443 12.6768C29.5354 12.8071 28.4974 12.964 27.7652 13.1578C27.4062 13.2528 27.0579 13.3723 26.7761 13.5375C26.5411 13.6752 26.0593 14.018 26.0249 14.655L27.0234 14.709L28.022 14.763C27.9993 15.1832 27.6896 15.3202 27.7871 15.2631C27.8378 15.2334 27.9825 15.1691 28.2768 15.0912C28.8512 14.9393 29.7615 14.7945 31.0424 14.667L30.9434 13.6719ZM27.0234 14.709L26.0246 14.661C25.8829 17.6126 25.8125 21.3273 25.8125 25.8008H26.8125H27.8125C27.8125 21.3446 27.8827 17.6647 28.0223 14.7569L27.0234 14.709ZM26.8125 25.8008H25.8125C25.8125 30.1176 25.8711 33.3912 25.9897 35.61L26.9883 35.5566L27.9869 35.5032C27.8711 33.3393 27.8125 30.109 27.8125 25.8008H26.8125ZM26.9883 35.5566H25.9883C25.9883 35.9237 26.1454 36.2128 26.308 36.4078L27.0762 35.7676L27.8444 35.1274C27.8897 35.1818 27.9883 35.3302 27.9883 35.5566H26.9883ZM27.0762 35.7676L26.308 36.4078C26.4869 36.6225 26.7062 36.7639 26.9161 36.8572L27.3223 35.9434L27.7284 35.0295C27.7286 35.0296 27.7418 35.0355 27.7629 35.0505C27.7844 35.0659 27.8138 35.0907 27.8444 35.1274L27.0762 35.7676ZM27.3223 35.9434L26.9509 36.8718C27.0414 36.908 27.1333 36.9493 27.2266 36.996L27.6738 36.1016L28.121 35.2071C27.98 35.1366 27.8375 35.0724 27.6937 35.0149L27.3223 35.9434ZM27.6738 36.1016L27.3024 37.03C27.4853 37.1032 27.6975 37.1634 27.9194 37.2156L28.1484 36.2422L28.3775 35.2688C28.2009 35.2272 28.0967 35.1937 28.0452 35.1731L27.6738 36.1016ZM28.1484 36.2422L27.9315 37.2184C28.1376 37.2642 28.3042 37.3031 28.4332 37.3354L28.6758 36.3652L28.9183 35.3951C28.7662 35.3571 28.5812 35.314 28.3654 35.266L28.1484 36.2422ZM28.6758 36.3652L28.4332 37.3354C28.6181 37.3816 28.841 37.4223 29.0899 37.4596L29.2383 36.4707L29.3866 35.4818C29.1668 35.4488 29.0147 35.4192 28.9183 35.3951L28.6758 36.3652ZM29.2383 36.4707L29.0969 37.4607C29.34 37.4954 29.5246 37.5234 29.654 37.545L29.8184 36.5586L29.9828 35.5722C29.8309 35.5469 29.6287 35.5163 29.3797 35.4808L29.2383 36.4707ZM29.8184 36.5586L29.6663 37.547C29.8455 37.5745 30.0659 37.6001 30.3212 37.6244L30.416 36.6289L30.5108 35.6334C30.274 35.6109 30.096 35.5895 29.9704 35.5702L29.8184 36.5586ZM30.416 36.6289L30.3255 37.6248C30.4462 37.6358 30.5397 37.646 30.609 37.6553C30.685 37.6654 30.7086 37.6713 30.7008 37.6694L30.9434 36.6992L31.1859 35.7291C31.0069 35.6843 30.7579 35.6559 30.5066 35.633L30.416 36.6289ZM30.9434 36.6992L29.9865 36.9897C30.1127 37.4055 30.108 37.9076 29.8921 38.5366L30.8379 38.8613L31.7837 39.186C32.1068 38.2448 32.1724 37.3054 31.9002 36.4087L30.9434 36.6992ZM30.8379 38.8613L30.8596 37.8616C26.5405 37.7679 23.9022 37.7207 22.9629 37.7207V38.7207V39.7207C23.8751 39.7207 26.4868 39.7672 30.8162 39.8611L30.8379 38.8613ZM22.9629 38.7207V37.7207C22.3142 37.7207 20.0886 37.7681 16.3112 37.8616L16.3359 38.8613L16.3607 39.861C20.1536 39.7671 22.3459 39.7207 22.9629 39.7207V38.7207ZM16.3359 38.8613L17.2761 38.5207C17.0566 37.9148 17.0749 37.4202 17.259 36.9784L16.3359 36.5938L15.4129 36.2091C15.011 37.1736 15.0293 38.1907 15.3957 39.202L16.3359 38.8613ZM16.3359 36.5938L16.4368 37.5886C17.7226 37.4583 18.744 37.3011 19.4657 37.1067C19.8196 37.0113 20.1644 36.891 20.444 36.7242C20.681 36.5828 21.1501 36.2393 21.1841 35.6106L20.1855 35.5566L19.187 35.5027C19.2093 35.0908 19.5091 34.9531 19.4195 35.0065C19.3725 35.0346 19.2331 35.098 18.9454 35.1755C18.3839 35.3268 17.4923 35.4714 16.2351 35.5989L16.3359 36.5938ZM20.1855 35.5566L21.1844 35.6046C21.3261 32.6531 21.3965 28.9502 21.3965 24.5H20.3965H19.3965C19.3965 28.9326 19.3263 32.6008 19.1867 35.5087L20.1855 35.5566ZM20.3965 24.5H21.3965C21.3965 20.7171 21.3378 17.4386 21.2198 14.6665L20.2207 14.709L19.2216 14.7515C19.338 17.4872 19.3965 20.736 19.3965 24.5H20.3965ZM20.2207 14.709L21.2192 14.655C21.1848 14.018 20.7031 13.6752 20.468 13.5375C20.1862 13.3723 19.8379 13.2528 19.4789 13.1578C18.7467 12.964 17.7087 12.8071 16.3998 12.6768L16.3008 13.6719L16.2017 14.667C17.4827 14.7945 18.393 14.9393 18.9674 15.0912C19.2617 15.1691 19.4063 15.2334 19.457 15.2631C19.5545 15.3202 19.2449 15.1832 19.2222 14.763L20.2207 14.709Z" fill="white" mask="url(#path-2-outside-1_0_1)"/>
</svg>
